<svg xmlns="http://www.w3.org/2000/svg" viewBox="0 0 64 64" fill="none">
  <!-- Background circle -->
  <circle cx="32" cy="32" r="32" fill="#16a34a"/>
  <!-- Book shape -->
  <rect x="14" y="18" width="16" height="22" rx="2" fill="white" opacity="0.9"/>
  <rect x="34" y="18" width="16" height="22" rx="2" fill="white" opacity="0.7"/>
  <!-- Book spine -->
  <rect x="29" y="18" width="6" height="22" rx="1" fill="#15803d"/>
  <!-- Heart on book -->
  <path d="M32 28 C32 28 27 24 27 21 C27 19.3 28.3 18 30 18 C31 18 31.8 18.5 32 19 C32.2 18.5 33 18 34 18 C35.7 18 37 19.3 37 21 C37 24 32 28 32 28Z" fill="#f43f5e" transform="translate(0 6)"/>
  <!-- Stars/sparkles -->
  <circle cx="20" cy="46" r="2" fill="white" opacity="0.8"/>
  <circle cx="32" cy="50" r="2.5" fill="white" opacity="0.9"/>
  <circle cx="44" cy="46" r="2" fill="white" opacity="0.8"/>
  <!-- Connecting dots -->
  <line x1="22" y1="46" x2="29.5" y2="49" stroke="white" stroke-width="1" opacity="0.6"/>
  <line x1="34.5" y1="49" x2="42" y2="46" stroke="white" stroke-width="1" opacity="0.6"/>
</svg>
